<svg width="35" height="21" viewBox="0 0 35 21" fill="none" xmlns="http://www.w3.org/2000/svg">
<rect x="-812" y="-106" width="1200" height="3863" rx="5" fill="white"/>
<path d="M15.092 1.384C15.7507 1.384 16.288 1.60067 16.704 2.034C17.1373 2.46733 17.354 3.03067 17.354 3.724V17.634C17.354 18.3447 17.146 18.9167 16.73 19.35C16.314 19.7833 15.7767 20 15.118 20C14.338 20 13.7487 19.74 13.35 19.22L5.446 9.366V17.634C5.446 18.3447 5.24667 18.9167 4.848 19.35C4.44933 19.7833 3.912 20 3.236 20C2.57733 20 2.04 19.7833 1.624 19.35C1.208 18.9167 1 18.3447 1 17.634V3.724C1 3.03067 1.208 2.46733 1.624 2.034C2.04 1.60067 2.57733 1.384 3.236 1.384C3.98133 1.384 4.562 1.644 4.978 2.164L12.882 11.992V3.724C12.882 3.01333 13.0813 2.45 13.48 2.034C13.896 1.60067 14.4333 1.384 15.092 1.384Z" fill="url(#paint0_linear_118_40)"/>
<path d="M30.9477 6.792C31.6584 6.792 32.2217 6.98267 32.6377 7.364C33.0537 7.74533 33.2617 8.26533 33.2617 8.924V17.92C33.2617 18.5267 33.0451 19.0293 32.6117 19.428C32.1784 19.8093 31.6151 20 30.9217 20C30.2977 20 29.7864 19.8353 29.3877 19.506C28.9891 19.1593 28.7811 18.7 28.7637 18.128C28.3651 18.752 27.8537 19.2287 27.2297 19.558C26.6231 19.8873 25.9211 20.052 25.1237 20.052C23.4771 20.052 22.2551 19.6013 21.4577 18.7C20.6604 17.7813 20.2617 16.3947 20.2617 14.54V8.924C20.2617 8.26533 20.4697 7.74533 20.8857 7.364C21.3017 6.98267 21.8651 6.792 22.5757 6.792C23.2864 6.792 23.8497 6.98267 24.2657 7.364C24.6817 7.74533 24.8897 8.26533 24.8897 8.924V14.644C24.8897 15.892 25.4271 16.516 26.5017 16.516C27.1257 16.516 27.6371 16.2907 28.0357 15.84C28.4344 15.3893 28.6337 14.8 28.6337 14.072V8.924C28.6337 8.26533 28.8417 7.74533 29.2577 7.364C29.6737 6.98267 30.2371 6.792 30.9477 6.792Z" fill="url(#paint1_linear_118_40)"/>
<path d="M59.177 16.256C59.6277 16.6893 59.853 17.192 59.853 17.764C59.853 18.336 59.6364 18.8387 59.203 19.272C58.7697 19.7053 58.2584 19.922 57.669 19.922C57.0277 19.922 56.4384 19.6447 55.901 19.09L48.491 11.498V17.634C48.491 18.362 48.2744 18.9427 47.841 19.376C47.4077 19.792 46.8184 20 46.073 20C45.345 20 44.7644 19.792 44.331 19.376C43.915 18.9427 43.707 18.362 43.707 17.634V3.724C43.707 3.01333 43.915 2.45 44.331 2.034C44.7644 1.60067 45.345 1.384 46.073 1.384C46.8184 1.384 47.4077 1.60067 47.841 2.034C48.2744 2.45 48.491 3.01333 48.491 3.724V9.444L55.797 2.086C56.2477 1.618 56.759 1.384 57.331 1.384C57.903 1.384 58.4057 1.60067 58.839 2.034C59.2724 2.45 59.489 2.944 59.489 3.516C59.489 4.088 59.2377 4.61667 58.735 5.102L53.405 10.328L59.177 16.256Z" fill="url(#paint2_linear_118_40)"/>
<path d="M71.8224 15.736C72.221 15.736 72.5417 15.892 72.7844 16.204C73.0444 16.516 73.1744 16.9233 73.1744 17.426C73.1744 18.1193 72.8364 18.648 72.1604 19.012C71.571 19.3067 70.869 19.558 70.0544 19.766C69.257 19.9567 68.5204 20.052 67.8444 20.052C66.423 20.052 65.1837 19.7833 64.1264 19.246C63.069 18.7087 62.2544 17.9373 61.6824 16.932C61.1104 15.9267 60.8244 14.748 60.8244 13.396C60.8244 12.1133 61.093 10.9693 61.6304 9.964C62.185 8.94133 62.9477 8.15267 63.9184 7.598C64.9064 7.026 66.0157 6.74 67.2464 6.74C68.4424 6.74 69.491 7 70.3924 7.52C71.2937 8.04 71.987 8.77667 72.4724 9.73C72.975 10.6833 73.2264 11.8013 73.2264 13.084C73.2264 13.4827 73.131 13.7947 72.9404 14.02C72.767 14.228 72.507 14.332 72.1604 14.332H65.2964C65.4177 15.164 65.6864 15.762 66.1024 16.126C66.5184 16.49 67.1337 16.672 67.9484 16.672C68.3817 16.672 68.7804 16.6287 69.1444 16.542C69.5084 16.438 69.9157 16.2993 70.3664 16.126C70.6264 16.022 70.8777 15.9353 71.1204 15.866C71.3804 15.7793 71.6144 15.736 71.8224 15.736ZM67.3764 9.86C66.7697 9.86 66.2844 10.0593 65.9204 10.458C65.5564 10.8393 65.3397 11.4027 65.2704 12.148H69.3524C69.2484 10.6227 68.5897 9.86 67.3764 9.86Z" fill="url(#paint3_linear_118_40)"/>
<path d="M83.9424 6.74C85.4678 6.74 86.6031 7.19933 87.3484 8.118C88.0938 9.01933 88.4664 10.3973 88.4664 12.252V17.868C88.4664 18.5267 88.2584 19.0467 87.8424 19.428C87.4264 19.8093 86.8631 20 86.1524 20C85.4418 20 84.8784 19.8093 84.4624 19.428C84.0464 19.0467 83.8384 18.5267 83.8384 17.868V12.46C83.8384 11.6973 83.6998 11.1427 83.4224 10.796C83.1624 10.4493 82.7638 10.276 82.2264 10.276C81.5331 10.276 80.9784 10.5013 80.5624 10.952C80.1638 11.3853 79.9644 11.9747 79.9644 12.72V17.868C79.9644 18.5267 79.7564 19.0467 79.3404 19.428C78.9244 19.8093 78.3611 20 77.6504 20C76.9398 20 76.3764 19.8093 75.9604 19.428C75.5444 19.0467 75.3364 18.5267 75.3364 17.868V8.872C75.3364 8.26534 75.5531 7.77133 75.9864 7.39C76.4198 6.99133 76.9831 6.792 77.6764 6.792C78.3351 6.792 78.8551 6.974 79.2364 7.338C79.6351 7.702 79.8344 8.17867 79.8344 8.768C80.2851 8.10933 80.8658 7.60667 81.5764 7.26C82.2871 6.91333 83.0758 6.74 83.9424 6.74Z" fill="url(#paint4_linear_118_40)"/>
<path d="M100.777 16.438C102.163 16.438 102.857 17.0013 102.857 18.128C102.857 19.272 102.163 19.844 100.777 19.844H92.5866C91.98 19.844 91.486 19.6533 91.1046 19.272C90.7233 18.8907 90.5326 18.4313 90.5326 17.894C90.5326 17.322 90.7493 16.7933 91.1826 16.308L96.6426 10.458H92.4566C91.07 10.458 90.3766 9.886 90.3766 8.742C90.3766 7.61533 91.07 7.052 92.4566 7.052H100.335C100.941 7.052 101.435 7.24267 101.817 7.624C102.198 8.00533 102.389 8.46467 102.389 9.002C102.389 9.55667 102.172 10.0767 101.739 10.562L96.2526 16.438H100.777Z" fill="url(#paint5_linear_118_40)"/>
<path d="M106.875 20C106.216 20 105.662 19.8267 105.211 19.48C104.778 19.116 104.561 18.5787 104.561 17.868V8.924C104.561 8.21333 104.778 7.68467 105.211 7.338C105.662 6.974 106.216 6.792 106.875 6.792C107.534 6.792 108.08 6.974 108.513 7.338C108.964 7.68467 109.189 8.21333 109.189 8.924V17.868C109.189 18.5787 108.964 19.116 108.513 19.48C108.08 19.8267 107.534 20 106.875 20ZM106.875 4.972C106.095 4.972 105.471 4.77267 105.003 4.374C104.552 3.958 104.327 3.412 104.327 2.736C104.327 2.06 104.552 1.52267 105.003 1.124C105.471 0.725334 106.095 0.526001 106.875 0.526001C107.638 0.526001 108.253 0.725334 108.721 1.124C109.189 1.52267 109.423 2.06 109.423 2.736C109.423 3.412 109.189 3.958 108.721 4.374C108.27 4.77267 107.655 4.972 106.875 4.972Z" fill="url(#paint6_linear_118_40)"/>
<path d="M122.274 15.736C122.672 15.736 122.993 15.892 123.236 16.204C123.496 16.516 123.626 16.9233 123.626 17.426C123.626 18.1193 123.288 18.648 122.612 19.012C122.022 19.3067 121.32 19.558 120.506 19.766C119.708 19.9567 118.972 20.052 118.296 20.052C116.874 20.052 115.635 19.7833 114.578 19.246C113.52 18.7087 112.706 17.9373 112.134 16.932C111.562 15.9267 111.276 14.748 111.276 13.396C111.276 12.1133 111.544 10.9693 112.082 9.964C112.636 8.94133 113.399 8.15267 114.37 7.598C115.358 7.026 116.467 6.74 117.698 6.74C118.894 6.74 119.942 7 120.844 7.52C121.745 8.04 122.438 8.77667 122.924 9.73C123.426 10.6833 123.678 11.8013 123.678 13.084C123.678 13.4827 123.582 13.7947 123.392 14.02C123.218 14.228 122.958 14.332 122.612 14.332H115.748C115.869 15.164 116.138 15.762 116.554 16.126C116.97 16.49 117.585 16.672 118.4 16.672C118.833 16.672 119.232 16.6287 119.596 16.542C119.96 16.438 120.367 16.2993 120.818 16.126C121.078 16.022 121.329 15.9353 121.572 15.866C121.832 15.7793 122.066 15.736 122.274 15.736ZM117.828 9.86C117.221 9.86 116.736 10.0593 116.372 10.458C116.008 10.8393 115.791 11.4027 115.722 12.148H119.804C119.7 10.6227 119.041 9.86 117.828 9.86Z" fill="url(#paint7_linear_118_40)"/>
<rect x="-18.5" y="-84.5" width="161.677" height="124.526" rx="4.5" stroke="#7B61FF" stroke-dasharray="10 5"/>
<defs>
<linearGradient id="paint0_linear_118_40" x1="36.3857" y1="19.844" x2="36.8857" y2="19.844" gradientUnits="userSpaceOnUse">
<stop stop-color="#FD377E"/>
<stop offset="1" stop-color="white"/>
</linearGradient>
<linearGradient id="paint1_linear_118_40" x1="36.3857" y1="19.844" x2="36.8857" y2="19.844" gradientUnits="userSpaceOnUse">
<stop stop-color="#FD377E"/>
<stop offset="1" stop-color="white"/>
</linearGradient>
<linearGradient id="paint2_linear_118_40" x1="36.3857" y1="19.844" x2="36.8857" y2="19.844" gradientUnits="userSpaceOnUse">
<stop stop-color="#FD377E"/>
<stop offset="1" stop-color="white"/>
</linearGradient>
<linearGradient id="paint3_linear_118_40" x1="36.3857" y1="19.844" x2="36.8857" y2="19.844" gradientUnits="userSpaceOnUse">
<stop stop-color="#FD377E"/>
<stop offset="1" stop-color="white"/>
</linearGradient>
<linearGradient id="paint4_linear_118_40" x1="36.3857" y1="19.844" x2="36.8857" y2="19.844" gradientUnits="userSpaceOnUse">
<stop stop-color="#FD377E"/>
<stop offset="1" stop-color="white"/>
</linearGradient>
<linearGradient id="paint5_linear_118_40" x1="36.3857" y1="19.844" x2="36.8857" y2="19.844" gradientUnits="userSpaceOnUse">
<stop stop-color="#FD377E"/>
<stop offset="1" stop-color="white"/>
</linearGradient>
<linearGradient id="paint6_linear_118_40" x1="36.3857" y1="19.844" x2="36.8857" y2="19.844" gradientUnits="userSpaceOnUse">
<stop stop-color="#FD377E"/>
<stop offset="1" stop-color="white"/>
</linearGradient>
<linearGradient id="paint7_linear_118_40" x1="36.3857" y1="19.844" x2="36.8857" y2="19.844" gradientUnits="userSpaceOnUse">
<stop stop-color="#FD377E"/>
<stop offset="1" stop-color="white"/>
</linearGradient>
</defs>
</svg>
